<svg width="22" height="22" viewBox="0 0 22 22" fill="none" xmlns="http://www.w3.org/2000/svg">
<path d="M4.55715 0.0447793C4.50551 0.0514962 4.45388 0.0514962 4.38878 0C3.88591 0.116426 3.3808 0.221658 2.88018 0.353757C2.25609 0.521679 1.77342 0.897825 1.3873 1.41055C0.895655 2.07104 0.570139 2.8099 0.309727 3.58234C0.0201299 4.43763 -0.0764023 5.30635 0.0627837 6.20865C0.18401 7.00572 0.453403 7.7513 0.727285 8.50359C1.17852 9.75069 1.67689 10.9732 2.37507 12.1083C3.4459 13.857 4.77041 15.3929 6.25432 16.8012C7.42617 17.9095 8.69232 18.9013 10.0842 19.723C11.6175 20.6254 13.2832 21.2209 14.9736 21.7404C15.8492 22.0135 16.7606 22.0874 17.6743 21.8836C18.68 21.6598 19.6252 21.2948 20.4715 20.7037C20.7768 20.4865 21.0799 20.2179 21.2931 19.9111C21.8027 19.1723 21.9487 18.3125 21.9981 17.4371C22.016 17.1258 21.9105 16.8997 21.6478 16.7452C21.1607 16.4542 20.678 16.1497 20.1819 15.8653C19.257 15.3347 18.2782 14.8936 17.4027 14.2689C17.3219 14.2107 17.2231 14.1704 17.131 14.1256C16.801 13.9599 16.4867 13.9868 16.1994 14.2286C16.058 14.3451 15.912 14.466 15.7908 14.6025C15.2857 15.169 14.7963 15.7399 14.2889 16.3019C13.7434 16.9087 13.4695 16.9758 12.7669 16.5795C12.0216 16.1586 11.283 15.7175 10.5736 15.2362C8.73273 13.9935 7.27576 12.3815 6.13534 10.4851C5.82778 9.97235 5.54941 9.44843 5.26879 8.92452C5.08695 8.58195 5.15654 8.25731 5.42594 7.99759C5.77166 7.66622 6.13983 7.355 6.49453 7.03035C6.91882 6.64301 7.35883 6.26463 7.75842 5.85713C8.03904 5.57278 8.04802 5.21455 7.85945 4.85856C7.7674 4.70183 7.67312 4.54062 7.57434 4.38389C7.46658 4.21821 7.33862 4.06148 7.24658 3.88908C6.88739 3.2465 6.55065 2.59272 6.18472 1.95686C5.86819 1.40607 5.53369 0.868719 5.20144 0.331367C5.05328 0.0873197 4.82429 0.0223897 4.55715 0.0447793Z" fill="#8FCBDE"/>
</svg>
